<svg width="10" height="10" viewBox="0 0 10 10" fill="none" xmlns="http://www.w3.org/2000/svg">
<path d="M4.93848 6.45508C4.94578 6.46442 4.95512 6.47197 4.96578 6.47716C4.97644 6.48235 4.98814 6.48505 5 6.48505C5.01186 6.48505 5.02356 6.48235 5.03422 6.47716C5.04488 6.47197 5.05422 6.46442 5.06152 6.45508L6.15527 5.07129C6.19531 5.02051 6.15918 4.94531 6.09375 4.94531H5.37012V1.64062C5.37012 1.59766 5.33496 1.5625 5.29199 1.5625H4.70605C4.66309 1.5625 4.62793 1.59766 4.62793 1.64062V4.94434H3.90625C3.84082 4.94434 3.80469 5.01953 3.84473 5.07031L4.93848 6.45508ZM8.57422 6.11328H7.98828C7.94531 6.11328 7.91016 6.14844 7.91016 6.19141V7.69531H2.08984V6.19141C2.08984 6.14844 2.05469 6.11328 2.01172 6.11328H1.42578C1.38281 6.11328 1.34766 6.14844 1.34766 6.19141V8.125C1.34766 8.29785 1.4873 8.4375 1.66016 8.4375H8.33984C8.5127 8.4375 8.65234 8.29785 8.65234 8.125V6.19141C8.65234 6.14844 8.61719 6.11328 8.57422 6.11328Z" fill="#98ECFF"/>
</svg>
