<svg width="10" height="10" viewBox="0 0 10 10" fill="none" xmlns="http://www.w3.org/2000/svg">
<path d="M8.59375 8.16406H1.40625C1.2334 8.16406 1.09375 8.30371 1.09375 8.47656V8.82812C1.09375 8.87109 1.12891 8.90625 1.17188 8.90625H8.82812C8.87109 8.90625 8.90625 8.87109 8.90625 8.82812V8.47656C8.90625 8.30371 8.7666 8.16406 8.59375 8.16406ZM2.5166 7.34375C2.53613 7.34375 2.55566 7.3418 2.5752 7.33887L4.21777 7.05078C4.2373 7.04687 4.25586 7.03809 4.26953 7.02344L8.40918 2.88379C8.41823 2.87475 8.42542 2.86402 8.43032 2.85221C8.43522 2.8404 8.43774 2.82773 8.43774 2.81494C8.43774 2.80215 8.43522 2.78949 8.43032 2.77767C8.42542 2.76586 8.41823 2.75513 8.40918 2.74609L6.78613 1.12207C6.76758 1.10352 6.74316 1.09375 6.7168 1.09375C6.69043 1.09375 6.66602 1.10352 6.64746 1.12207L2.50781 5.26172C2.49316 5.27637 2.48438 5.29395 2.48047 5.31348L2.19238 6.95605C2.18288 7.00837 2.18628 7.06221 2.20227 7.11292C2.21827 7.16363 2.24638 7.20967 2.28418 7.24707C2.34863 7.30957 2.42969 7.34375 2.5166 7.34375V7.34375Z" fill="#98ECFF"/>
</svg>
