<svg width="225" height="31" viewBox="0 0 225 31" fill="none" xmlns="http://www.w3.org/2000/svg">
<path d="M40.168 4.31995H43.336V1.25995H40.168V4.31995ZM40.348 27H43.12V8.38795H40.348V27Z" fill="#98ECFF"/>
<path d="M49.553 27H52.325V16.344C52.325 12.852 54.701 10.5119 57.905 10.5119C61.181 10.5119 63.053 12.6719 63.053 16.1279V27H65.825V15.4439C65.825 11.0159 63.197 7.99195 58.697 7.99195C55.493 7.99195 53.549 9.61195 52.325 11.6279V8.38795H49.553V27Z" fill="#98ECFF"/>
<path d="M77.8926 27.3599C81.6006 27.3599 84.5166 25.3079 84.5166 21.7799V21.708C84.5166 18.36 81.4206 17.2439 78.5406 16.3799C76.0566 15.6239 73.7526 14.9399 73.7526 13.176V13.1039C73.7526 11.5559 75.1566 10.4039 77.3526 10.4039C79.1526 10.4039 81.1326 11.0879 82.8606 12.2039L84.1206 10.1159C82.2126 8.85595 79.6926 8.06395 77.4246 8.06395C73.7526 8.06395 71.0886 10.1879 71.0886 13.3919V13.4639C71.0886 16.8839 74.3286 17.8919 77.2446 18.7199C79.6926 19.4039 81.8886 20.1239 81.8886 21.9959V22.0679C81.8886 23.8679 80.2686 25.0199 78.0366 25.0199C75.8406 25.0199 73.6086 24.1559 71.5926 22.6439L70.1886 24.6239C72.2766 26.3159 75.2286 27.3599 77.8926 27.3599Z" fill="#98ECFF"/>
<path d="M95.5427 27.3239C96.8747 27.3239 97.9188 27.036 98.8908 26.5319V24.156C97.9188 24.624 97.1267 24.8039 96.1908 24.8039C94.3188 24.8039 93.0588 23.976 93.0588 21.708V10.8359H98.9627V8.38795H93.0588V2.77195H90.2868V8.38795H87.6947V10.8359H90.2868V22.0679C90.2868 25.8479 92.5547 27.3239 95.5427 27.3239Z" fill="#98ECFF"/>
<path d="M109.413 27.396C112.689 27.396 114.813 25.8839 116.109 24.2279V27H118.845V15.6239C118.845 13.2479 118.197 11.4479 116.901 10.1519C115.569 8.81995 113.517 8.09995 110.889 8.09995C108.153 8.09995 106.173 8.74795 104.121 9.68395L104.949 11.9519C106.677 11.1599 108.405 10.6199 110.601 10.6199C114.093 10.6199 116.109 12.3479 116.109 15.6599V16.2359C114.453 15.7679 112.797 15.4439 110.421 15.4439C105.705 15.4439 102.465 17.532 102.465 21.528V21.5999C102.465 25.4159 105.921 27.396 109.413 27.396ZM109.953 25.1639C107.433 25.1639 105.273 23.796 105.273 21.4559V21.3839C105.273 19.1519 107.253 17.6399 110.709 17.6399C112.977 17.6399 114.777 18.0359 116.145 18.4319V20.16C116.145 23.112 113.373 25.1639 109.953 25.1639Z" fill="#98ECFF"/>
<path d="M137.204 27.36C142.208 27.36 145.808 24.552 145.808 20.232V20.16C145.808 16.308 143.216 14.256 137.6 13.032C132.056 11.844 130.76 10.512 130.76 8.13597V8.06397C130.76 5.79597 132.848 3.99597 136.124 3.99597C138.716 3.99597 141.056 4.82397 143.396 6.73197L145.052 4.53597C142.496 2.48397 139.868 1.43997 136.196 1.43997C131.408 1.43997 127.916 4.35597 127.916 8.31597V8.38797C127.916 12.528 130.58 14.4 136.376 15.66C141.668 16.776 142.928 18.108 142.928 20.448V20.52C142.928 23.004 140.696 24.804 137.312 24.804C133.82 24.804 131.3 23.616 128.672 21.24L126.908 23.328C129.932 26.028 133.208 27.36 137.204 27.36Z" fill="#CACACA"/>
<path d="M151.123 27H153.895V16.344C153.895 12.852 156.271 10.512 159.475 10.512C162.751 10.512 164.623 12.672 164.623 16.128V27H167.395V15.444C167.395 11.016 164.767 7.99197 160.267 7.99197C157.063 7.99197 155.119 9.61197 153.895 11.628V0.719971H151.123V27Z" fill="#CACACA"/>
<path d="M178.851 27.396C182.127 27.396 184.251 25.884 185.547 24.228V27H188.283V15.624C188.283 13.248 187.635 11.448 186.339 10.152C185.007 8.81997 182.955 8.09997 180.327 8.09997C177.591 8.09997 175.611 8.74797 173.559 9.68397L174.387 11.952C176.115 11.16 177.843 10.62 180.039 10.62C183.531 10.62 185.547 12.348 185.547 15.66V16.236C183.891 15.768 182.235 15.444 179.859 15.444C175.143 15.444 171.903 17.532 171.903 21.528V21.6C171.903 25.416 175.359 27.396 178.851 27.396ZM179.391 25.164C176.871 25.164 174.711 23.796 174.711 21.456V21.384C174.711 19.152 176.691 17.64 180.147 17.64C182.415 17.64 184.215 18.036 185.583 18.432V20.16C185.583 23.112 182.811 25.164 179.391 25.164Z" fill="#CACACA"/>
<path d="M194.155 27H196.927V19.584C196.927 13.968 200.239 11.052 204.307 11.052H204.523V8.06397C200.995 7.91997 198.295 10.152 196.927 13.248V8.38797H194.155V27Z" fill="#CACACA"/>
<path d="M209.592 18.828H224.352C224.388 18.396 224.388 18.108 224.388 17.856C224.388 12.384 221.22 7.99197 215.712 7.99197C210.564 7.99197 206.784 12.312 206.784 17.712C206.784 23.508 210.96 27.432 216.072 27.432C219.6 27.432 221.868 26.028 223.74 23.94L222.012 22.392C220.5 23.976 218.7 25.02 216.144 25.02C212.868 25.02 209.988 22.752 209.592 18.828ZM209.592 16.596C209.988 12.996 212.436 10.332 215.64 10.332C219.312 10.332 221.256 13.212 221.58 16.596H209.592Z" fill="#CACACA"/>
<path d="M25 3.5H12.5C11.1212 3.5 10 4.62125 10 6V11H5C3.62125 11 2.5 12.1213 2.5 13.5V26C2.5 27.3788 3.62125 28.5 5 28.5H17.5C18.8788 28.5 20 27.3788 20 26V21H25C26.3788 21 27.5 19.8788 27.5 18.5V6C27.5 4.62125 26.3788 3.5 25 3.5ZM5 26V13.5H17.5L17.5025 26H5ZM25 18.5H20V13.5C20 12.1213 18.8788 11 17.5 11H12.5V6H25V18.5Z" fill="#98ECFF"/>
</svg>
