<svg width="30" height="30" viewBox="0 0 30 30" fill="none" xmlns="http://www.w3.org/2000/svg">
<g clip-path="url(#clip0)">
<path d="M24.1875 12.55C23.7676 10.4221 22.622 8.50607 20.9463 7.12906C19.2707 5.75204 17.1689 4.99951 15 5C11.3875 5 8.25 7.05 6.6875 10.05C4.85029 10.2485 3.15126 11.119 1.91686 12.4942C0.682464 13.8693 -0.000214627 15.6521 5.06159e-08 17.5C5.06159e-08 21.6375 3.3625 25 7.5 25H23.75C27.2 25 30 22.2 30 18.75C30 15.45 27.4375 12.775 24.1875 12.55ZM17.5 16.25V21.25H12.5V16.25H8.75L15 10L21.25 16.25H17.5Z" fill="#98ECFF"/>
</g>
<defs>
<clipPath id="clip0">
<rect width="30" height="30" fill="white"/>
</clipPath>
</defs>
</svg>
