<svg width="100" height="100" viewBox="0 0 100 100" fill="none" xmlns="http://www.w3.org/2000/svg">
<g clip-path="url(#clip0)">
<path d="M80.625 41.8334C79.2254 34.7405 75.4067 28.3536 69.8211 23.7635C64.2355 19.1735 57.2296 16.6651 50 16.6667C37.9583 16.6667 27.5 23.5 22.2917 33.5C16.1676 34.1618 10.5042 37.0634 6.38954 41.6472C2.27488 46.231 -0.000715424 52.1737 1.6872e-07 58.3334C1.6872e-07 72.125 11.2083 83.3334 25 83.3334H79.1667C90.6667 83.3334 100 74 100 62.5C100 51.5 91.4583 42.5834 80.625 41.8334ZM58.3333 54.1667V70.8334H41.6667V54.1667H29.1667L50 33.3334L70.8333 54.1667H58.3333Z" fill="#98ECFF"/>
</g>
<defs>
<clipPath id="clip0">
<rect width="100" height="100" fill="white"/>
</clipPath>
</defs>
</svg>
