<svg width="10" height="10" viewBox="0 0 10 10" fill="none" xmlns="http://www.w3.org/2000/svg">
<path d="M8.3457 2.81934C8.4043 2.87793 8.4375 2.95703 8.4375 3.04004V9.0625C8.4375 9.23535 8.29785 9.375 8.125 9.375H1.875C1.70215 9.375 1.5625 9.23535 1.5625 9.0625V0.9375C1.5625 0.764648 1.70215 0.625 1.875 0.625H6.02246C6.10547 0.625 6.18555 0.658203 6.24414 0.716797L8.3457 2.81934V2.81934ZM7.7168 3.18359L5.87891 1.3457V3.18359H7.7168ZM2.89062 1.32812V1.95312H3.51562V1.32812H2.89062ZM3.51562 1.95312V2.57812H4.14062V1.95312H3.51562ZM2.89062 2.57812V3.20312H3.51562V2.57812H2.89062ZM3.51562 3.20312V3.82812H4.14062V3.20312H3.51562ZM2.89062 3.82812V4.45312H3.51562V3.82812H2.89062ZM3.51562 4.45312V5.07812H4.14062V4.45312H3.51562ZM2.89062 5.07812V5.70312H3.51562V5.07812H2.89062ZM2.89062 5.70312V7.26562H4.14062V5.70312H2.89062ZM3.35938 6.17188H3.67188V6.79688H3.35938V6.17188Z" fill="#98ECFF"/>
</svg>
