<svg width="30" height="30" viewBox="0 0 30 30" fill="none" xmlns="http://www.w3.org/2000/svg">
<path d="M25.0371 8.45801C25.2129 8.63379 25.3125 8.87109 25.3125 9.12012V27.1875C25.3125 27.7061 24.8936 28.125 24.375 28.125H5.625C5.10645 28.125 4.6875 27.7061 4.6875 27.1875V2.8125C4.6875 2.29395 5.10645 1.875 5.625 1.875H18.0674C18.3164 1.875 18.5566 1.97461 18.7324 2.15039L25.0371 8.45801V8.45801ZM23.1504 9.55078L17.6367 4.03711V9.55078H23.1504ZM8.67188 3.98438V5.85938H10.5469V3.98438H8.67188ZM10.5469 5.85938V7.73438H12.4219V5.85938H10.5469ZM8.67188 7.73438V9.60938H10.5469V7.73438H8.67188ZM10.5469 9.60938V11.4844H12.4219V9.60938H10.5469ZM8.67188 11.4844V13.3594H10.5469V11.4844H8.67188ZM10.5469 13.3594V15.2344H12.4219V13.3594H10.5469ZM8.67188 15.2344V17.1094H10.5469V15.2344H8.67188ZM8.67188 17.1094V21.7969H12.4219V17.1094H8.67188ZM10.0781 18.5156H11.0156V20.3906H10.0781V18.5156Z" fill="#98ECFF"/>
</svg>
